<svg width="1580" height="831" viewBox="0 0 1580 831" fill="none" xmlns="http://www.w3.org/2000/svg">
<path d="M101.077 828.993C101.077 828.993 -82.7852 631.501 69.9809 417.655C205.517 227.898 363.535 240.887 479.482 317.876C528.87 350.644 671.251 321.891 792.39 128.886C957.665 -134.377 1530.44 25.2695 1425.99 430.349C1375.43 626.364 1579.82 633.508 1475.68 829.465L101.077 828.993Z" fill="#FCECDB"/>
<path d="M1429.95 826.808H1371.71C1368.58 824.151 1373.89 818.129 1379.38 817.716C1381.8 817.539 1384.81 818.011 1388.29 818.779C1389.12 808.151 1393.66 760.21 1410.95 762.158C1430.36 764.284 1410.95 783.236 1405.46 794.454C1401.39 802.778 1397.14 814.646 1395.13 820.314C1396.73 820.668 1398.32 820.963 1400.03 821.317C1402.63 813.406 1412.19 786.837 1424.34 788.372C1438.62 790.203 1432.9 800.83 1422.75 807.147C1415.31 811.812 1406.23 818.424 1401.86 821.612C1405.52 822.203 1409.36 822.616 1413.25 822.498C1423.22 822.262 1428.06 825.214 1429.95 826.808Z" fill="#82B378"/>
<path d="M160.201 824.742C157.9 821.081 150.937 811.694 141.673 812.933C131.583 814.291 152.825 820.963 159.316 824.801C157.841 824.801 156.602 824.683 155.716 824.387C151.35 822.852 143.915 825.804 141.555 826.867H182.977C182.682 825.863 181.915 824.269 180.027 823.088C179.319 822.675 177.962 822.616 176.192 822.734C178.67 819.841 180.381 810.572 173.536 812.933C168.521 814.705 168.521 820.373 169.052 823.679C167.99 823.856 166.928 824.033 165.865 824.151C163.8 813.642 156.484 782.823 141.732 781.996C126.745 781.169 154.418 813.996 163.682 824.446C162.384 824.564 161.263 824.683 160.201 824.742Z" fill="#82B378"/>
<path d="M1214.93 755.073L1210.39 774.026L1204.43 799.177H1185.72L1184.66 775.088L1183.78 756.49L1214.93 755.073Z" fill="#FFB27D"/>
<path d="M1274.11 342.319C1274.11 342.319 1288.87 326.496 1298.48 338.894C1308.1 351.293 1318.72 359.677 1333.47 369.241C1348.22 378.806 1320.43 453.611 1301.96 452.076C1283.55 450.482 1208.15 391.5 1274.11 342.319Z" fill="#BC3F3F"/>
<path d="M1200.53 334.762C1204.25 331.987 1238.18 320.356 1271.34 331.81C1304.44 343.263 1245.67 375.264 1245.67 375.264L1226.61 376.09L1200.53 334.762Z" fill="#4A75CB"/>
<path d="M1178.35 826.808C1178.35 826.808 1178.35 817.657 1179.65 814.587C1180.94 811.517 1185.72 799.177 1185.72 799.177H1204.43C1204.43 799.177 1207.91 810.454 1208.14 814.173C1208.38 817.893 1208.14 826.808 1208.14 826.808H1178.35V826.808Z" fill="#233862"/>
<path d="M1296.95 826.808C1296.95 826.808 1296.95 817.657 1295.65 814.587C1294.35 811.517 1289.57 799.177 1289.57 799.177H1270.87C1270.87 799.177 1267.39 810.454 1267.15 814.173C1266.91 817.893 1267.15 826.808 1267.15 826.808H1296.95V826.808Z" fill="#233862"/>
<path d="M1222.13 313.153C1222.13 313.153 1221.48 333.522 1218.88 342.673L1198.23 387.19L1275.88 368.71L1257.36 343.086C1257.36 343.086 1251.75 315.75 1254.7 305.654C1257.65 295.559 1222.13 313.153 1222.13 313.153Z" fill="#FFB27D"/>
<path d="M1222.01 315.987C1222.01 315.987 1228.15 330.806 1239.71 330.452C1251.28 330.097 1253.93 317.049 1253.93 317.049L1222.01 315.987Z" fill="#ED985F"/>
<path d="M1215.11 304.001C1215.11 304.001 1211.39 285.344 1208.79 279.677C1206.2 274.009 1204.01 248.798 1232.93 247.499C1232.93 247.499 1244.02 248.798 1250.1 245.138C1250.1 245.138 1250.1 248.857 1248.56 250.156C1248.56 250.156 1258.54 247.794 1266.38 256.473C1274.23 265.152 1261.19 295.618 1261.84 302.761L1215.11 304.001Z" fill="#2C3A64"/>
<path d="M1238.42 324.725C1230.04 324.548 1214.64 313.389 1214.64 299.573V278.023C1214.64 272.946 1218.18 268.872 1222.48 268.872H1254.46C1258.77 268.872 1262.31 273.005 1262.31 278.023V298.392C1262.19 312.857 1248.03 324.902 1238.42 324.725Z" fill="#FFB27D"/>
<path d="M1214.58 289.536C1214.58 289.536 1214.64 276.547 1224.9 274.599C1235.17 272.592 1258.12 280.916 1261.37 271.47C1264.61 262.023 1217 262.2 1214.58 268.223C1212.22 274.186 1214.58 289.536 1214.58 289.536Z" fill="#2C3A64"/>
<path d="M1250.39 514.246C1255.53 498.246 1255.41 580.549 1234.82 673.066C1231.69 687.177 1224.61 721.243 1219.53 754.247H1177.23C1176.64 727.62 1173.8 690.483 1171.97 662.616C1166.37 575.353 1180.71 509.877 1180.71 509.877L1250.39 514.246Z" fill="#2B478B"/>
<path d="M1304.62 662.616C1304.15 689.302 1298.72 724.727 1298.25 750.704H1255.35C1252.46 731.87 1247.91 712.446 1244.61 696.741C1242.25 685.641 1240.6 676.372 1240.6 670.586C1240.66 659.25 1233.46 626.601 1229.21 597.789C1229.21 597.73 1229.21 597.73 1229.21 597.671C1229.03 596.549 1228.86 595.486 1228.74 594.364C1223.01 553.862 1225.02 514.246 1225.02 514.246L1297.42 509.7C1297.42 509.7 1305.86 591.471 1304.62 662.616Z" fill="#2B478B"/>
<path d="M1174.98 543.412C1174.98 543.412 1191.27 563.132 1235.52 560.298C1279.78 557.464 1300.9 549.729 1300.9 549.729L1174.98 543.412Z" fill="#233862"/>
<path d="M1300.84 549.788C1286.39 551.737 1188.08 556.873 1174.98 543.471C1161.88 530.069 1196.4 346.983 1196.4 346.983C1196.4 346.983 1200.3 345.861 1206.91 344.621C1210.27 343.972 1214.34 343.323 1218.88 342.791C1218.94 344.208 1220.06 365.817 1238 374.732C1238 374.732 1259.48 366.112 1257.41 343.145C1257.41 342.85 1257.36 342.614 1257.3 342.378C1260.19 342.673 1263.08 343.086 1265.97 343.618C1271.87 344.621 1277.83 346.038 1283.79 348.046C1283.79 347.928 1315.3 547.84 1300.84 549.788Z" fill="#739AF0"/>
<path d="M1175.81 455.264C1175.22 456.032 1179.17 461.64 1184.66 468.902C1196.05 483.781 1214.22 505.449 1214.22 505.449C1213.99 512.77 1212.92 517.552 1212.92 517.552C1187.91 505.744 1171.03 494.703 1159.82 485.788C1144.06 473.331 1139.58 465.124 1139.58 465.124C1164.83 358.201 1197.23 347.101 1197.23 347.101L1207.79 411.515C1207.85 411.456 1177.58 452.961 1175.81 455.264Z" fill="#739AF0"/>
<path d="M1265.97 343.5L1259.48 363.337L1250.81 376.09L1238.36 382.88L1226.61 376.09L1206.91 344.562C1210.27 343.913 1214.34 343.264 1218.88 342.732C1218.94 344.149 1220.06 365.758 1238 374.673C1238 374.673 1259.48 366.053 1257.41 343.086C1257.41 342.791 1257.36 342.555 1257.3 342.319C1260.13 342.614 1263.08 343.027 1265.97 343.5Z" fill="#EE9849"/>
<path d="M1214.22 505.449C1214.22 505.685 1214.22 505.862 1214.22 506.039C1214.16 507.397 1214.1 508.637 1213.99 509.818C1213.34 510.703 1212.69 511.53 1211.92 512.238C1210.8 513.419 1209.5 514.364 1208.26 515.19C1207.61 514.895 1207.02 514.6 1206.37 514.246C1184.96 503.618 1170.09 493.759 1159.88 485.67C1166.37 483.663 1175.4 479.116 1184.66 468.784C1196.05 483.781 1214.22 505.449 1214.22 505.449Z" fill="#FFB27D"/>
<path d="M1338.37 461.168C1338.37 461.168 1334 469.434 1318.49 482.246C1307.45 491.338 1290.75 502.733 1266.03 515.013C1266.03 515.013 1264.91 510.29 1264.55 502.969C1264.55 502.969 1282.32 480.947 1293.41 465.891C1298.78 458.57 1302.61 452.843 1302.02 452.076C1300.61 450.305 1281.67 425.33 1273.17 414.172C1270.69 410.924 1269.16 408.858 1269.16 408.858L1279.9 345.507C1279.84 345.507 1311.11 354.776 1338.37 461.168Z" fill="#739AF0"/>
<path d="M1318.49 482.246C1308.4 490.511 1293.64 500.725 1272.34 511.766C1271.81 512.061 1271.28 512.297 1270.75 512.593C1268.04 509.286 1266.38 505.39 1265.38 501.906C1265.73 501.493 1266.21 500.903 1266.74 500.194C1271.87 493.818 1284.68 477.699 1293.41 465.832C1302.85 475.987 1312 480.356 1318.49 482.246Z" fill="#FFB27D"/>
<path d="M1257.3 342.319C1242.96 340.784 1229.51 341.492 1218.88 342.732C1218.88 342.673 1218.88 342.673 1218.88 342.673C1218.88 342.673 1254.41 320.651 1257.3 342.319Z" fill="#FFB27D"/>
<path d="M1221.66 404.548H1220.89L1220.36 370.245H1222.19L1221.66 404.548Z" fill="#BBD4FF"/>
<path d="M1220.83 403.662C1220.18 404.666 1218.65 407.972 1219.65 408.326C1220.65 408.681 1222.37 408.681 1222.84 408.208C1223.31 407.736 1222.07 401.714 1220.83 403.662Z" fill="#EE9849"/>
<path d="M1255.29 404.548H1254.52L1253.99 370.245H1255.88L1255.29 404.548Z" fill="#BBD4FF"/>
<path d="M1254.46 403.662C1253.82 404.666 1252.28 407.972 1253.28 408.326C1254.29 408.681 1256 408.681 1256.47 408.208C1257 407.736 1255.7 401.714 1254.46 403.662Z" fill="#EE9849"/>
<path d="M1226.61 376.09L1196.4 346.924C1196.4 346.924 1189.62 342.083 1200.36 334.88C1211.1 327.677 1226.61 376.09 1226.61 376.09Z" fill="#4A75CB"/>
<path d="M1250.81 376.09L1281.02 346.924C1281.02 346.924 1287.8 342.083 1277.06 334.88C1266.27 327.677 1250.81 376.09 1250.81 376.09Z" fill="#4A75CB"/>
<path d="M1288.69 517.965C1282.79 518.438 1277.89 516.962 1274.11 513.596C1273.46 513.006 1272.87 512.416 1272.34 511.766C1269.33 508.283 1267.68 503.855 1266.74 500.194C1265.68 495.943 1265.56 492.637 1265.56 492.578V491.751H1216.7L1216.76 492.637C1216.94 497.892 1216.11 502.379 1214.22 506.098C1213.28 507.929 1212.1 509.582 1210.68 511.058C1209.33 512.416 1207.91 513.478 1206.37 514.364C1199.83 518.143 1192.57 518.025 1192.51 518.025L1191.62 517.965V538.571H1289.69V517.906L1288.69 517.965Z" fill="#678FE5"/>
<path d="M1302.02 452.017C1302.02 452.017 1274.82 416.297 1296.36 405.906C1304.91 401.773 1316.95 450.777 1310.52 455.382C1304.03 460.046 1293.41 465.832 1293.41 465.832L1302.02 452.017Z" fill="#678FE5"/>
<path d="M1178.94 446.172C1178.94 446.172 1188.38 401.301 1180.12 405.965C1171.8 410.57 1159.52 450.836 1165.96 455.441C1172.39 460.046 1183.01 465.891 1183.01 465.891L1178.94 446.172Z" fill="#678FE5"/>
<path d="M1298.19 451.958C1285.74 436.548 1281.14 411.456 1281.78 385.596C1282.26 366.171 1284.91 348.636 1285.09 348.046L1295.3 356.016C1295.24 356.134 1289.46 366.762 1288.98 385.655C1288.57 402.954 1287.74 416.061 1297.54 446.172L1298.19 451.958Z" fill="#BC3F3F"/>
<path d="M1203.84 763.752H1181.95C1180 763.989 1176.99 761.155 1176.99 757.081C1176.99 757.081 1176.93 747.339 1176.28 745.627C1173.45 738.07 1177.64 737.656 1181.71 737.656H1221.66C1225.73 737.656 1219.47 750.173 1219.47 754.247L1220.89 759.561C1220.95 763.634 1207.91 763.752 1203.84 763.752Z" fill="#233862"/>
<path d="M1210.39 774.026L1204.43 799.177H1185.72L1184.6 775.088C1187.43 776.092 1196.82 778.69 1210.39 774.026Z" fill="#233862"/>
<path d="M1260.48 755.073L1264.97 773.73L1270.93 798.469H1289.63L1290.75 774.793L1291.58 756.49L1260.48 755.073Z" fill="#FFB27D"/>
<path d="M1271.52 763.752H1293.41C1295.36 763.989 1298.37 761.155 1298.37 757.081C1298.37 757.081 1298.42 747.339 1299.07 745.627C1301.91 738.07 1297.72 737.656 1293.64 737.656H1253.7C1249.63 737.656 1255.88 750.173 1255.88 754.247L1254.46 759.561C1254.41 763.634 1267.45 763.752 1271.52 763.752Z" fill="#233862"/>
<path d="M1264.97 774.026L1270.93 799.177H1289.63L1290.75 775.088C1287.92 776.092 1278.6 778.69 1264.97 774.026Z" fill="#233862"/>
<path d="M336.097 265.566C334.622 263.972 331.318 262.141 327.01 260.665C334.622 257.241 341.054 253.226 336.628 250.747C334.681 249.684 332.38 249.802 329.961 250.687C333.678 246.909 335.507 243.662 331.849 242.776C326.302 241.477 320.52 248.621 316.507 255.234C319.104 249.566 320.461 243.957 315.622 243.898C310.017 243.78 308.896 251.278 309.014 257.713C308.542 257.713 308.07 257.713 307.598 257.713C306.004 250.569 302.936 241.713 297.685 244.075C295.029 245.256 295.147 247.853 296.504 250.806C294.026 248.916 291.607 248.267 289.66 250.274C286.709 253.344 290.368 257.005 295.147 260.016C291.725 261.256 288.48 263.027 285.647 265.566C269.303 279.854 287.122 312.208 287.122 312.208L333.796 311.027C348.43 287.765 341.408 271.352 336.097 265.566Z" fill="#2C3A64"/>
<path d="M288.48 488.386L260.57 491.928C242.219 494.231 225.638 483.663 223.75 468.43L213.129 384.179C211.182 368.946 219.207 356.902 237.676 356.193C248.592 355.721 266.824 353.36 286.473 346.806C303.88 341.02 305.827 357.02 307.716 372.253L318.337 456.504C320.225 471.677 306.771 486.083 288.48 488.386Z" fill="#2B478B"/>
<path d="M251.542 829.347C251.542 829.347 251.542 820.373 252.84 817.362C254.138 814.35 258.8 802.247 258.8 802.247H277.151C277.151 802.247 280.573 813.347 280.75 816.948C280.986 820.55 280.75 829.347 280.75 829.347H251.542V829.347Z" fill="#233862"/>
<path d="M367.901 829.347C367.901 829.347 367.901 820.373 366.603 817.362C365.305 814.35 360.644 802.247 360.644 802.247H342.293C342.293 802.247 338.871 813.347 338.694 816.948C338.458 820.55 338.694 829.347 338.694 829.347H367.901V829.347Z" fill="#233862"/>
<path d="M294.498 325.551C294.498 325.551 293.849 345.566 291.312 354.481L271.073 368.592L347.25 379.987L329.076 354.895C329.076 354.895 323.588 328.09 326.479 318.171C329.312 308.311 294.498 325.551 294.498 325.551Z" fill="#B56F40"/>
<path d="M294.38 328.326C294.38 328.326 300.399 342.85 311.728 342.496C323.057 342.201 325.653 329.33 325.653 329.33L294.38 328.326Z" fill="#99592E"/>
<path d="M310.43 336.887C302.228 336.769 287.064 325.787 287.064 312.208V291.071C287.064 286.112 290.486 282.038 294.734 282.038H326.125C330.374 282.038 333.796 286.112 333.796 291.071V311.027C333.796 325.256 319.871 337.064 310.43 336.887Z" fill="#B56F40"/>
<path d="M253.843 518.497C253.843 518.497 257.03 616.446 252.25 672.357C247.471 728.269 252.309 806.026 252.309 806.026C252.309 806.026 267.651 814.469 284.231 806.026C284.231 806.026 302.464 698.04 302.346 672.357C302.228 644.962 322.172 522.807 322.172 522.807L253.843 518.497Z" fill="#EE9849"/>
<path d="M367.252 806.026C367.252 806.026 351.911 814.469 335.33 806.026C335.33 806.026 317.097 698.04 317.215 672.357C317.274 660.785 313.734 632.328 309.663 603.279C304.057 563.545 297.39 522.807 297.39 522.807L368.374 518.379C368.374 518.379 362.532 616.505 367.311 672.357C372.091 728.21 367.252 806.026 367.252 806.026Z" fill="#EE9849"/>
<path d="M354.979 359.677C345.774 357.374 337.101 355.898 329.076 354.954C321.995 364.341 316.92 366.526 310.489 369.064C300.104 367.647 291.312 354.836 291.312 354.54C276.206 356.075 267.651 359.264 267.651 359.264C261.927 361.684 254.374 406.614 253.194 431.53C253.076 434.659 253.017 437.493 253.076 439.854C253.666 461.227 254.551 482.069 251.778 505.095C248.179 535.382 254.315 534.851 254.315 534.851C254.315 534.851 262.576 536.445 274.082 537.98C284.526 539.397 297.567 540.696 309.604 540.696C337.219 540.696 367.489 534.851 367.489 534.851C376.221 534.969 365.069 480.593 363.417 447.884C363.063 440.268 362.709 433.36 362.355 427.043C372.799 436.076 403.6 452.489 404.308 454.615C404.308 454.615 397.582 466.895 395.575 473.449C387.728 498.541 374.274 515.19 374.274 515.19C376.103 522.157 375.572 525.227 375.572 525.227C396.873 508.46 410.622 494.231 419.414 483.249C431.746 467.84 434.283 459.043 434.283 459.043C386.783 362.275 354.979 359.677 354.979 359.677Z" fill="#74ACBE"/>
<path d="M274.082 537.921C262.576 536.386 254.315 534.792 254.315 534.792C254.315 534.792 248.179 535.323 251.778 505.035C254.551 482.009 253.666 461.227 253.076 439.795C253.017 437.434 253.076 434.6 253.194 431.47C254.964 434.304 274.613 466.068 279.924 489.685C283.759 506.925 277.977 527.235 274.082 537.921Z" fill="#578E9B"/>
<path d="M317.216 672.357C317.275 660.785 313.734 632.328 309.663 603.28C313.911 585.921 324.296 569.272 324.296 569.272C337.337 605.995 317.216 672.357 317.216 672.357Z" fill="#E58638"/>
<path d="M374.215 515.072C374.215 515.072 362.709 504.386 358.048 510.408C353.386 516.371 352.501 525.759 356.159 525.109C359.759 524.46 367.253 521.035 368.315 522.748C369.377 524.46 374.156 527.707 375.572 525.109C376.988 522.571 374.215 515.072 374.215 515.072Z" fill="#B56F40"/>
<path d="M374.215 515.072C376.044 522.039 375.513 525.109 375.513 525.109C396.814 508.342 410.563 494.113 419.355 483.131C412.746 482.659 406.609 481.183 395.516 473.331C386.37 501.375 374.215 515.072 374.215 515.072Z" fill="#B56F40"/>
<path d="M401.653 452.371C399.942 450.954 372.622 435.899 362.237 426.865C362.237 426.865 372.563 419.131 378.936 430.408C385.367 441.744 401.653 452.371 401.653 452.371Z" fill="#578E9B"/>
<path d="M434.283 458.984C434.283 458.984 431.746 467.781 419.414 483.19C405.134 482.954 434.283 458.984 434.283 458.984Z" fill="#578E9B"/>
<path d="M287.122 299.632C287.122 299.632 292.846 282.215 311.551 284.931C330.256 287.647 331.849 291.662 333.855 296.267C335.861 300.931 339.697 279.322 339.697 279.322L317.629 272.769C317.629 272.769 290.958 275.78 289.011 280.267C287.122 284.754 287.122 284.754 287.122 284.754V299.632Z" fill="#2C3A64"/>
<path d="M253.371 485.316L253.666 470.437C274.849 454.378 283.405 435.308 284.231 402.363C284.821 377.389 276.442 357.02 276.383 356.784C276.383 356.784 280.101 355.898 281.399 355.662C282.756 355.426 287.004 354.954 287.004 354.954C287.241 355.839 292.846 376.149 292.197 402.304C291.43 437.493 276.265 467.899 253.371 485.316Z" fill="#2B478B"/>
<path d="M312.023 481.065C304.883 482.128 268.241 490.629 242.16 493.936C227.468 495.766 216.079 496.002 215.194 492.283C212.775 482.01 221.036 416.474 234.135 390.083C247.235 363.692 271.604 358.024 271.604 358.024L278.508 399.766L243.34 469.847L251.896 470.024L310.666 471.087L312.023 481.065Z" fill="#74ACBE"/>
<path d="M330.433 484.784H317.215C315.622 484.784 314.324 483.486 314.324 481.891V457.921C314.324 456.327 315.622 455.028 317.215 455.028H330.433C332.026 455.028 333.324 456.327 333.324 457.921V481.891C333.383 483.486 332.085 484.784 330.433 484.784Z" fill="#233862"/>
<path d="M330.433 487.146H317.215C315.622 487.146 314.324 485.847 314.324 484.253V460.282C314.324 458.688 315.622 457.389 317.215 457.389H330.433C332.026 457.389 333.324 458.688 333.324 460.282V484.253C333.383 485.847 332.085 487.146 330.433 487.146Z" fill="#2B478B"/>
<path d="M303.821 473.389C303.821 473.389 323.175 460.046 329.489 464.71C335.802 469.316 336.333 480.356 310.017 481.301L303.821 473.389Z" fill="#B56F40"/>
<path d="M312.023 481.065C304.883 482.128 268.241 490.629 242.16 493.936C244.461 482.777 248.061 475.22 251.896 470.083L310.666 471.146L312.023 481.065Z" fill="#B56F40"/>
<path d="M330.964 301.581C329.961 300.4 328.368 299.691 326.479 299.691H317.038C315.268 299.691 313.97 300.223 313.321 301.226C313.026 301.699 312.849 302.23 312.79 302.761C311.197 302.348 309.663 302.584 308.601 302.821C308.542 302.23 308.365 301.699 308.07 301.167C307.421 300.164 306.122 299.632 304.352 299.632H294.911C293.082 299.632 291.43 300.341 290.427 301.522C289.542 302.643 289.247 304.06 289.542 305.655C290.604 310.968 296.74 311.677 299.809 311.677C300.753 311.677 301.402 311.618 301.52 311.618C304.411 311.618 306.417 309.964 307.893 306.481C308.129 305.891 308.542 304.769 308.601 303.588C309.604 303.293 311.197 303.057 312.731 303.529C312.79 304.71 313.203 305.891 313.439 306.481C314.914 309.964 316.92 311.618 319.812 311.618C319.93 311.618 320.579 311.677 321.523 311.677C324.591 311.677 330.728 310.968 331.79 305.655C332.144 304.119 331.849 302.643 330.964 301.581ZM307.362 306.245C306.004 309.492 304.175 311.027 301.579 311.027H301.52C301.52 311.027 298.983 311.322 296.268 310.791C292.787 310.083 290.722 308.311 290.191 305.595C289.896 304.178 290.191 302.939 290.958 301.994C291.843 300.931 293.318 300.341 294.97 300.341H304.411C306.004 300.341 307.066 300.754 307.598 301.581C307.893 301.994 308.011 302.525 308.07 303.057C307.598 303.234 307.303 303.352 307.244 303.352C307.067 303.411 306.948 303.647 307.067 303.824C307.126 303.942 307.244 304.06 307.421 304.06C307.48 304.06 307.539 304.06 307.598 304.001C307.598 304.001 307.775 303.942 308.129 303.824C307.893 304.828 307.539 305.832 307.362 306.245ZM331.2 305.595C330.669 308.311 328.604 310.083 325.122 310.791C322.467 311.322 319.93 311.027 319.871 311.027H319.812C317.216 311.027 315.386 309.492 314.029 306.245C313.852 305.832 313.498 304.769 313.38 303.706C313.557 303.765 313.734 303.883 313.911 303.942C314.088 304.06 314.324 303.942 314.383 303.765C314.501 303.588 314.383 303.352 314.206 303.293C313.911 303.116 313.616 302.998 313.321 302.939C313.38 302.407 313.498 301.935 313.734 301.522C314.265 300.695 315.386 300.282 316.92 300.282H326.361C328.014 300.282 329.489 300.872 330.374 301.935C331.259 302.939 331.495 304.178 331.2 305.595Z" fill="#2C3A64"/>
<path d="M302.936 323.249C302.936 323.249 313.262 322.127 318.101 323.249C318.101 323.249 315.563 327.441 311.315 327.441C307.125 327.441 303.939 325.906 302.936 323.249Z" fill="#FFF0E6"/>
<path d="M777.933 290.658C772.918 289.005 767.43 289.832 763.654 290.776C764.421 289.595 766.25 288.828 766.25 288.828C763.831 288.946 759.051 292.37 759.051 292.37C723.766 286.348 728.368 335.588 731.319 346.629C734.269 357.669 717.216 389.729 705.474 405.374C672.49 449.242 725.241 494.939 725.241 494.939C767.961 530.836 748.548 461.227 748.548 461.227C745.893 452.371 777.992 396.164 796.874 377.507C800.592 368.651 799.706 354.481 799.647 353.36C800.946 364.459 800.297 371.013 799.352 374.791C814.34 354.127 791.269 295.086 777.933 290.658Z" fill="#163560"/>
<path d="M865.675 452.489C865.675 457.271 863.315 463.353 859.892 469.611C851.396 485.257 836.526 502.024 836.526 502.024L827.911 489.744C827.911 489.744 833.163 476.755 836.644 466.009C838.709 459.574 840.184 453.965 839.476 452.489C837.588 448.533 800.297 404.371 800.297 404.371L790.148 370.186C790.148 370.186 814.989 371.485 825.551 386.954C836.054 402.482 865.675 439.677 865.675 452.489Z" fill="#BC3F3F"/>
<path d="M859.833 469.611C851.337 485.257 836.467 502.024 836.467 502.024L827.852 489.744C827.852 489.744 833.104 476.755 836.585 466.01C840.775 468.489 847.973 470.851 859.833 469.611Z" fill="#FFB27D"/>
<path d="M756.75 760.387L765.66 797.996L779.054 797.937L779.526 760.387H756.75Z" fill="#FFB27D"/>
<path d="M869.215 761.981L894.588 797.996L904.501 785.302L889.218 757.022L869.215 761.981Z" fill="#FFB27D"/>
<path d="M791.859 381.286C791.977 381.345 781.12 386.954 772.977 384.71C765.306 382.644 760.291 372.666 760.409 372.666C763.654 372.016 764.598 367.529 764.539 348.4L766.014 348.695L790.679 353.596C790.679 353.596 790.088 361.389 790.088 368.71C790.088 374.791 790.443 380.577 791.859 381.286Z" fill="#FFB27D"/>
<path d="M752.266 304.06C752.266 304.06 761.648 288.946 779.054 297.979C779.054 297.979 770.027 298.215 752.266 304.06Z" fill="#5FABB7"/>
<path d="M790.679 353.537C790.679 353.537 790.088 361.33 790.088 368.651C776.281 368.238 768.964 355.662 766.014 348.695L790.679 353.537Z" fill="#EF9E67"/>
<path d="M760.94 349.522C760.94 349.522 751.617 339.721 747.958 330.511C745.362 323.898 743.71 297.802 769.968 296.326C769.968 296.326 777.52 295.558 785.427 298.865C791.741 301.463 801.3 307.957 796.874 331.869L796.048 339.839L760.94 349.522Z" fill="#163560"/>
<path d="M902.141 777.037C902.141 777.037 895.591 778.158 890.221 778.572C889.041 778.69 887.861 778.69 886.917 778.69C884.321 778.69 879.659 777.686 876.532 776.978L876.296 776.919C874.939 776.564 873.877 776.328 873.464 776.21L873.287 776.151C873.287 776.151 840.598 739.723 822.247 681.331C821.834 679.973 821.362 678.616 820.89 677.199C810.859 647.914 790.03 611.132 779.054 577.833C777.284 572.519 775.75 567.56 774.334 562.836C773.862 561.301 773.449 559.825 773.036 558.349C764.952 530.246 762.592 511.825 760.468 492.105L826.436 508.873C826.377 508.991 854.051 629.08 902.141 777.037Z" fill="#A53D38"/>
<path d="M794.986 357.433C794.986 357.433 763.064 364.4 759.051 344.444C754.98 324.489 748.194 311.972 768.374 306.658C788.554 301.345 794.101 308.134 797.051 314.511C800.002 320.828 803.188 355.131 794.986 357.433Z" fill="#FFB27D"/>
<path d="M782.831 303.234C782.831 303.234 778.759 328.444 766.014 334.585C753.269 340.784 746.719 338.304 746.719 338.304C746.719 338.304 755.393 328.031 754.626 313.271C754.626 313.33 773.98 293.433 782.831 303.234Z" fill="#163560"/>
<path d="M781.061 305.595C781.061 305.595 788.672 309.492 791.269 314.274C793.865 319.057 796.697 329.33 799.707 328.385C799.707 328.385 803.129 311.145 793.865 303.647C784.07 295.677 781.061 305.595 781.061 305.595Z" fill="#163560"/>
<path d="M765.188 795.871C765.188 795.871 766.25 803.31 763.477 811.28C763.477 811.28 761.294 821.258 771.089 821.436C780.884 821.613 783.303 820.668 782.182 814.587C781.061 808.446 778.936 797.878 778.936 797.878L765.188 795.871Z" fill="#FFB27D"/>
<path d="M763.536 811.339C763.536 811.339 761.353 821.849 762.474 826.808C762.474 826.808 765.778 827.989 772.918 827.989C779.703 827.989 783.657 826.808 783.657 826.808C783.657 826.808 783.421 815.413 781.592 811.044C781.592 811.044 774.629 821.494 763.536 811.339Z" fill="#C45446"/>
<path d="M928.162 815.59C928.162 815.59 910.047 795.457 904.501 785.243L891.048 792.151L921.14 820.432L928.162 819.487V815.59Z" fill="#FFB27D"/>
<path d="M939.668 827.398C939.668 827.398 920.197 827.399 916.892 827.044C913.529 826.69 910.874 821.849 907.274 814.646C905.799 811.694 902.495 810.04 899.072 809.155L899.131 826.808H893.762L889.041 808.092C885.855 802.188 888.805 796.874 891.048 792.21C893.644 792.21 900.725 793.981 914.119 809.096C918.544 814.055 923.383 815.826 928.162 815.649C928.221 815.708 928.28 815.708 928.339 815.767C939.491 820.727 939.668 827.398 939.668 827.398Z" fill="#C45446"/>
<path d="M890.162 778.572C888.982 778.69 887.802 778.69 886.858 778.69C884.262 778.69 879.6 777.686 876.473 776.978L876.237 776.919L873.405 776.21L873.228 776.151C873.228 776.151 840.539 739.723 822.188 681.331C821.775 679.974 821.303 678.616 820.831 677.199C810.8 647.914 789.97 611.132 778.995 577.833C777.225 572.519 775.691 567.56 774.275 562.837C773.803 561.301 773.39 559.825 772.977 558.349L784.66 549.493C784.66 549.493 819.65 606.231 830.508 659.604C839.476 704.003 878.184 761.391 890.162 778.572Z" fill="#912F2F"/>
<path d="M785.899 664.741C786.076 690.719 784.778 750.409 781.415 775.088C781.415 775.088 778.228 777.922 770.263 777.981C762.12 778.04 758.461 775.029 758.461 775.029C749.965 732.048 743.946 696.505 739.58 665.863C735.98 640.711 732.794 619.161 730.316 600.623C728.132 584.209 726.539 570.098 725.772 557.936C725.654 556.283 725.595 554.689 725.477 553.095C725.359 551.028 725.3 548.962 725.241 547.014C725.182 545.065 725.182 543.117 725.182 541.228H725.477L741.881 539.633L793.629 534.556C792.803 580.076 785.781 649.627 785.899 664.741Z" fill="#A53D38"/>
<path d="M770.204 777.981C763.3 778.395 758.402 775.029 758.402 775.029C749.906 732.047 743.887 696.505 739.521 665.863C735.921 640.711 732.735 619.161 730.257 600.623C728.073 584.209 726.48 570.098 725.713 557.936C725.595 551.973 725.536 546.187 725.477 541.228C725.418 536.209 725.3 531.899 725.182 528.947L741.881 539.633L759.406 550.851C759.406 550.851 734.505 573.523 740.642 616.327C746.778 659.132 761.707 771.9 770.204 777.981Z" fill="#912F2F"/>
<path d="M835.464 546.187C815.579 551.324 722.94 561.538 722.173 538.335C721.996 532.667 722.173 525.818 722.645 518.438C724.002 495.471 727.778 467.131 729.607 451.544C730.434 444.401 727.66 412.4 729.785 394.924C730.08 392.326 730.493 390.083 731.083 388.253C735.095 375.087 753.092 371.485 762.297 371.19L790.147 370.245C790.147 370.245 818.942 402.422 822.896 412.282C826.908 422.142 828.206 455.973 831.334 472.327C834.402 488.74 845.141 543.707 835.464 546.187Z" fill="#BC3F3F"/>
<path d="M780.707 467.722C780.707 467.722 765.247 515.309 722.586 518.438C723.943 495.471 727.719 467.131 729.549 451.544C730.375 444.401 727.601 412.4 729.726 394.924C730.257 395.042 730.788 395.338 731.378 395.456C778.346 404.548 785.014 457.803 780.707 467.722Z" fill="#A53D38"/>
<path d="M818.529 419.678L769.065 414.407L761.048 489.732L810.511 495.003L818.529 419.678Z" fill="#2B478B"/>
<path d="M769.082 414.408L765.896 414.172L758.402 489.449L761.058 489.744L769.082 414.408Z" fill="#163560"/>
<path d="M727.365 447.766C727.365 447.766 762.297 458.452 795.635 463.235C795.635 463.235 806.669 468.017 801.477 469.316C800.179 469.67 733.325 484.253 723.412 474.748L727.365 447.766Z" fill="#FFB27D"/>
<path d="M762.238 371.19C762.238 371.19 743.887 371.308 736.039 380.223C721.76 396.577 718.927 466.01 723.412 474.748C725.359 478.526 740.229 478.821 746.542 460.637C749.787 451.19 764.008 388.312 762.238 371.19Z" fill="#BC3F3F"/>
<path d="M792.331 462.703C792.331 462.703 796.461 462.349 797.228 460.991C798.762 458.393 801.241 458.393 803.306 458.039C805.371 457.685 807.672 455.441 808.085 455.914C808.498 456.386 806.551 458.866 805.489 459.751C805.489 459.751 807.672 459.869 809.147 459.22C810.623 458.511 815.048 452.784 815.756 455.205C817.585 461.581 815.697 467.663 810.564 468.135C805.076 468.666 791.446 471.323 791.446 471.323L792.331 462.703Z" fill="#FFB27D"/>
<path d="M963.802 492.224C937.721 485.611 909.044 445.109 909.044 445.109L916.361 438.733C923.973 447.707 955.541 463.116 955.541 463.116C955.364 454.91 955.6 447.412 956.131 440.622C959.612 394.334 977.078 378.924 981.858 375.5C982.625 374.968 983.038 374.732 983.038 374.732C983.038 374.732 983.038 375.086 983.097 375.677C983.156 377.035 983.274 379.81 983.451 383.647C984.454 411.987 985.634 497.773 963.802 492.224Z" fill="#D9935C"/>
<path d="M916.42 438.733C916.302 437.611 915.594 421.729 912.408 418.718C909.221 415.707 903.026 411.574 901.197 411.928C899.426 412.282 893.349 422.378 896.181 429.345C899.072 436.312 909.044 445.109 909.044 445.109L916.42 438.733Z" fill="#D9935C"/>
<path d="M922.911 440.563L905.74 441.271C905.15 441.271 904.678 440.858 904.678 440.268L903.321 407.5C903.321 406.909 903.734 406.437 904.324 406.437L921.495 405.729C922.085 405.729 922.557 406.142 922.557 406.732L923.914 439.5C923.914 440.09 923.501 440.563 922.911 440.563Z" fill="#F1A34F"/>
<path d="M918.426 440.74L902.849 441.389C901.846 441.448 900.961 440.622 900.961 439.618L899.662 408.444C899.603 407.441 900.43 406.555 901.433 406.555L917.01 405.906C918.013 405.847 918.898 406.673 918.898 407.677L920.196 438.85C920.255 439.854 919.429 440.74 918.426 440.74Z" fill="#D86713"/>
<path d="M899.957 413.109C899.957 413.109 904.619 407.854 909.339 411.869C914.001 415.884 909.044 424.386 904.973 426.747C900.902 429.109 899.603 430.29 899.603 430.29L899.957 413.109Z" fill="#D9935C"/>
<path d="M1020.62 761.391C1019.03 767.708 1017.26 773.73 1015.49 779.339C1015.14 780.52 1014.72 781.701 1014.37 782.882C1014.19 783.472 1014.02 784.003 1013.78 784.594C1013.43 785.716 1013.01 786.778 1012.66 787.841C1012.19 789.199 1011.71 790.557 1011.24 791.856C1010.89 792.8 1010.53 793.804 1010.18 794.69C1004.87 808.86 1000.44 817.893 1000.44 817.893L989.882 817.184C989.882 817.184 993.836 798.35 994.603 771.369C994.603 770.424 994.662 769.42 994.662 768.476C994.721 766.409 994.721 764.225 994.721 762.099C994.721 761.214 994.721 760.328 994.721 759.383C994.485 736.18 991.653 708.726 982.448 682.512C975.013 661.198 969.584 641.243 965.69 623.235C953.063 565.08 956.013 526.88 956.013 526.88L1015.25 533.847L1018.03 534.143C1018.26 561.36 1018.97 598.379 1019.56 627.25C1019.68 632.268 1019.74 637.051 1019.86 641.479C1020.27 660.018 1020.57 672.711 1020.57 672.711C1032.13 697.272 1028 731.929 1020.62 761.391Z" fill="#CB7D45"/>
<path d="M1003.63 323.249C1003.63 323.249 1017.67 335.175 1004.81 348.931C1004.81 348.931 1015.55 349.994 1019.15 347.042C1019.15 347.042 1018.44 348.518 1017.79 349.168C1017.79 349.168 1029.77 349.581 1034.73 345.861C1039.68 342.142 1036.5 280.798 1003.28 287.647C1003.28 287.647 975.072 285.521 977.727 318.112C980.323 350.762 969.702 350.762 969.702 350.762C969.702 350.762 972.653 352.238 974.069 352.238C974.069 352.238 976.134 351.411 976.547 350.289C976.547 350.289 976.134 352.12 975.603 352.651C975.603 352.651 987.109 353.714 992.833 349.404C998.556 345.035 1005.28 329.979 1003.63 323.249Z" fill="#233862"/>
<path d="M1048.89 520.209C1037.68 495.058 1032.31 487.973 1032.13 480.061C1031.95 473.803 1035.08 467.072 1041.04 450.541C1042.46 446.644 1043.4 442.629 1044.05 438.555C1048.77 406.673 1030.36 372.194 1018.91 369.832C1015.73 369.005 1010.3 357.492 1010.42 338.894L1009 339.19L984.867 343.972C984.867 343.972 985.398 351.588 985.457 358.732C985.457 364.695 985.162 370.777 983.805 371.485C982.094 371.662 980.5 371.957 980.5 371.957C980.5 371.957 960.084 386.304 958.786 405.788C957.016 431.766 975.367 462.585 959.081 514.541C942.383 567.56 1055.08 534.084 1048.89 520.209Z" fill="#D9935C"/>
<path d="M984.808 343.972C984.808 343.972 985.339 351.588 985.398 358.732C998.91 358.378 1006.05 346.038 1008.94 339.19L984.808 343.972Z" fill="#CB7D45"/>
<path d="M1011.42 336.533C1011.42 336.533 1018.5 325.374 1020.21 315.81C1021.45 308.961 1017.97 283.691 992.538 287.293C992.538 287.293 985.162 288.001 978.199 292.725C972.653 296.444 964.687 304.533 973.597 326.614L975.898 334.053L1011.42 336.533Z" fill="#233862"/>
<path d="M980.264 350.762C980.264 350.762 1012.19 351.293 1012.25 331.396C1012.25 311.5 1016.38 298.156 996.019 296.975C975.603 295.795 971.65 303.411 970.056 310.023C968.404 316.636 971.945 350.053 980.264 350.762Z" fill="#D9935C"/>
<path d="M981.445 296.444C981.445 296.444 990.177 319.824 1003.63 323.249C1017.03 326.673 1022.87 323.131 1022.87 323.131C1022.87 323.131 1012.6 314.924 1010.42 300.636C1010.42 300.636 988.053 285.344 981.445 296.444Z" fill="#233862"/>
<path d="M983.628 298.333C983.628 298.333 977.078 303.529 975.485 308.607C973.892 313.684 973.184 324.134 970.115 323.78C970.115 323.78 963.507 307.898 970.941 298.924C978.848 289.418 983.628 298.333 983.628 298.333Z" fill="#233862"/>
<path d="M1090.43 546.895L1080.81 549.788C1080.81 549.788 1049.18 497.301 1046.29 483.604C1045.35 479.176 1043.05 470.26 1040.39 460.282C1034.84 439.618 1027.65 414.349 1027.65 414.349L1025.29 404.135L1017.26 369.242C1017.26 369.242 1032.66 370.836 1041.69 374.614C1044.7 375.854 1046.94 377.33 1047.77 379.101C1054.38 393.684 1060.98 430.467 1065.65 456.681C1068.24 471.323 1070.19 482.659 1071.25 485.08C1074.14 491.751 1082.93 528.652 1090.43 546.895Z" fill="#D9935C"/>
<path d="M982.389 299.101C982.389 299.101 988.643 323.544 1005.58 331.396C1005.58 331.396 988.643 316.341 987.227 300.223C985.752 284.105 982.389 299.101 982.389 299.101Z" fill="#233862"/>
<path d="M1054.61 756.254C1051.19 792.623 1036.2 816.181 1036.2 816.181L1031.07 820.845C1031.07 820.845 1026.41 794.217 1023.04 763.693C1019.86 734.704 1015.43 704.003 1010.48 694.675C1003.04 680.682 997.553 652.047 993.6 621.818C987.05 571.811 984.749 517.316 984.749 517.316L1044.82 514.364C1050.84 524.519 1053.49 541.227 1054.14 560.18C1054.79 580.135 1053.25 602.571 1051.07 622.645C1048 650.748 1043.81 674.187 1042.81 679.442C1042.69 680.151 1042.87 680.8 1043.22 681.449C1055.14 705.125 1056.85 732.225 1054.61 756.254Z" fill="#D9935C"/>
<path d="M984.454 436.666C983.097 469.67 978.14 502.379 963.802 500.312C946.159 497.714 941.616 481.301 940.671 469.08C940.081 461.463 940.907 455.5 940.907 455.5C940.907 455.5 949.581 455.441 950.997 454.142C957.665 448.002 955.659 387.603 958.963 381.345C962.268 375.087 983.628 371.072 983.628 371.072C983.628 371.072 985.811 404.017 984.454 436.666Z" fill="#EE9849"/>
<path d="M984.454 436.666C983.097 469.67 978.14 502.379 963.802 500.312C946.159 497.714 941.615 481.301 940.671 469.08C944.979 468.843 952.591 467.781 955.659 463.175C959.966 456.563 973.479 413.994 973.479 413.994C973.479 413.994 978.789 423.559 984.454 436.666Z" fill="#E58638"/>
<path d="M1020.62 761.391C1019.03 767.708 1017.26 773.73 1015.49 779.339C1015.14 780.52 1014.72 781.701 1014.37 782.882C1014.19 783.472 1014.02 784.004 1013.78 784.594C1013.43 785.716 1013.01 786.779 1012.66 787.841C1012.19 789.199 1011.71 790.557 1011.24 791.856C1010.89 792.801 1010.53 793.804 1010.18 794.69C1004.87 808.86 1000.44 817.893 1000.44 817.893L989.882 817.185C989.882 817.185 993.836 798.351 994.603 771.369C994.603 770.424 994.662 769.42 994.662 768.476C994.721 766.409 994.721 764.225 994.721 762.099C994.721 761.214 994.721 760.328 994.721 759.384C994.485 736.18 991.653 708.726 982.448 682.512C975.013 661.199 969.584 641.243 965.69 623.235C971.945 624.534 977.491 623.235 993.482 621.877C995.134 621.759 1003.22 631.678 1011.12 644.903C1011.54 663.442 1020.62 672.771 1020.62 672.771C1032.13 697.273 1028 731.93 1020.62 761.391Z" fill="#233862"/>
<path d="M1054.61 756.254C1051.19 792.623 1036.2 816.181 1036.2 816.181L1031.07 820.845C1031.07 820.845 1026.41 794.218 1023.04 763.693C1019.86 734.704 1015.43 704.003 1010.48 694.675C1003.04 680.682 997.553 652.047 993.6 621.818C999.146 624.121 1017.97 630.084 1051.07 622.586C1048 650.689 1043.81 674.128 1042.81 679.383C1042.69 680.092 1042.87 680.741 1043.22 681.39C1055.14 705.125 1056.85 732.225 1054.61 756.254Z" fill="#2B478B"/>
<path d="M1066.12 579.25C1066.12 579.25 1053.55 583.146 1035.02 585.685C1012.07 588.873 980.028 589.995 951.411 579.25C951.411 579.25 949.05 536.622 955.836 514.423C962.622 492.224 965.808 481.537 965.808 481.537C965.808 481.537 993.01 488.327 1020.57 483.072C1024.46 482.305 1028.35 481.36 1032.13 480.061C1032.13 480.061 1049.18 516.253 1053.84 531.722C1058.51 547.191 1066.12 579.25 1066.12 579.25Z" fill="#2B478B"/>
<path d="M1066.12 579.25C1066.12 579.25 1053.55 583.146 1035.02 585.685C1001.03 566.438 1017.62 485.316 1017.62 485.316C1018.62 484.489 1019.62 483.722 1020.57 483.072C1024.46 482.305 1028.35 481.36 1032.13 480.061C1032.13 480.061 1049.18 516.253 1053.84 531.722C1058.51 547.191 1066.12 579.25 1066.12 579.25Z" fill="#233862"/>
<path d="M1093.91 498.069C1093.91 506.393 1085.47 511.471 1076.38 513.951C1067.65 516.312 1058.39 516.312 1055.44 514.364C1050.42 510.999 1042.22 473.626 1039.86 462.231C1039.45 460.164 1039.21 458.984 1039.21 458.984C1039.21 458.984 1032.72 474.57 1032.48 475.987C1032.37 476.637 1032.31 477.522 1032.25 478.349C1032.19 479.294 1032.13 480.12 1032.13 480.12C1032.13 480.12 996.727 498.01 965.749 481.596C965.749 481.596 953.181 408.799 958.609 396.223C961.323 390.024 975.485 377.153 981.149 371.603C982.448 370.363 982.271 367.884 981.799 365.64C981.386 363.751 983.097 362.038 984.985 362.57C988.643 363.515 995.193 363.337 1002.21 361.035C1005.7 359.913 1009.35 358.201 1012.78 355.898C1013.78 355.19 1015.14 355.839 1015.25 357.02C1015.79 361.389 1017.08 369.301 1019.5 369.301C1022.81 369.301 1045.29 372.016 1046.94 374.85C1047.53 375.795 1053.37 389.079 1060.75 406.614C1060.75 406.614 1060.75 406.614 1060.75 406.673C1074.67 439.441 1093.91 487.5 1093.91 498.069Z" fill="#EE9849"/>
<path d="M1039.21 458.924C1039.21 458.924 1032.72 474.511 1032.48 475.928C1032.37 476.578 1032.31 477.463 1032.25 478.29C1029.12 480.888 1025.29 482.836 1021.39 484.017C1010.36 487.382 1005.58 466.187 1006.23 455.677C1006.88 445.109 1022.51 414.998 1027.71 414.349C1032.84 413.699 1039.21 458.924 1039.21 458.924Z" fill="#E58638"/>
<path d="M1039.86 462.231C1039.45 460.164 1039.21 458.984 1039.21 458.984C1039.51 460.046 1039.74 461.168 1039.86 462.231Z" fill="#E58638"/>
<path d="M994.662 489.567C974.541 489.567 966.221 482.659 965.631 482.187L964.333 472.681C964.51 472.799 991.535 489.035 1033.37 473.508L1032.48 480.711C1016.32 486.615 1005.11 489.567 994.662 489.567Z" fill="#B64C41"/>
<path d="M1093.91 498.069C1093.91 506.393 1085.47 511.471 1076.38 513.951C1088.89 499.013 1061.52 408.858 1060.81 406.555C1074.67 439.441 1093.91 487.5 1093.91 498.069Z" fill="#E58638"/>
<path d="M1019.56 369.242C1019.56 369.242 1002.75 379.928 990 377.389C990 377.389 986.932 375.441 991.181 373.492C995.134 371.662 1004.34 366.289 1002.33 360.976C1005.81 359.854 1009.47 358.142 1012.89 355.839C1013.9 355.131 1015.25 355.78 1015.37 356.961C1015.85 361.271 1017.14 369.242 1019.56 369.242Z" fill="#E58638"/>
<path d="M1006.52 826.749H999.795C997.553 826.395 995.901 825.745 993.541 825.45C990.059 824.978 988.407 826.454 988.112 826.749C988.053 826.808 988.053 826.808 988.053 826.808H959.494C958.786 825.805 959.494 823.384 960.143 821.672C960.615 820.491 961.619 819.605 962.799 819.251C965.808 818.365 971.827 817.598 977.255 812.638C980.323 809.863 992.125 802.424 992.125 802.424H992.184C992.42 802.424 993.659 802.838 999.028 807.325C1001.8 809.686 1006.52 804.018 1006.52 804.018C1006.52 804.018 1007.41 804.727 1008.06 806.144C1008.59 807.207 1009 808.683 1008.65 810.513C1008.23 813.111 1009.59 817.893 1010.71 821.14C1011.36 823.089 1011.95 824.506 1011.95 824.506C1011.95 824.506 1012.3 826.041 1006.52 826.749Z" fill="#233862"/>
<path d="M1008.12 806.085C1006.52 807.207 1003.1 809.45 1000.86 809.745C997.848 810.159 992.125 802.365 992.125 802.365H992.184C992.42 802.365 993.659 802.779 999.028 807.266C1001.8 809.627 1006.52 803.959 1006.52 803.959C1006.52 803.959 1007.47 804.668 1008.12 806.085Z" fill="#466AA5"/>
<path d="M1006.52 826.749H999.795C997.553 826.395 995.901 825.745 993.541 825.45C990.059 824.978 988.407 826.454 988.112 826.749C988.053 826.808 988.053 826.808 988.053 826.808H959.494C958.786 825.804 959.494 823.384 960.143 821.672C961.029 820.904 961.265 825.037 961.737 825.686C962.209 826.336 985.044 825.923 986.342 824.978C987.64 824.033 991.594 822.321 997.14 823.679C1001.92 824.801 1009 821.908 1010.77 821.081C1011.42 823.03 1012.01 824.447 1012.01 824.447C1012.01 824.447 1012.3 826.041 1006.52 826.749Z" fill="#466AA5"/>
<path d="M1042.4 826.749H1035.67C1033.43 826.395 1031.78 825.745 1029.42 825.45C1025.93 824.978 1024.28 826.454 1023.99 826.749C1023.93 826.808 1023.93 826.808 1023.93 826.808H995.37C994.662 825.805 995.37 823.384 996.019 821.672C996.491 820.491 997.494 819.605 998.674 819.251C1001.68 818.365 1007.7 817.598 1013.13 812.638C1016.2 809.863 1028 802.424 1028 802.424H1028.06C1028.3 802.424 1029.53 802.838 1034.9 807.325C1037.68 809.686 1042.4 804.018 1042.4 804.018C1042.4 804.018 1043.28 804.727 1043.93 806.144C1044.46 807.207 1044.88 808.683 1044.52 810.513C1044.11 813.111 1045.47 817.893 1046.59 821.14C1047.24 823.089 1047.83 824.506 1047.83 824.506C1047.83 824.506 1048.18 826.041 1042.4 826.749Z" fill="#233862"/>
<path d="M1043.99 806.085C1042.4 807.207 1038.98 809.45 1036.73 809.745C1033.72 810.159 1028 802.365 1028 802.365H1028.06C1028.3 802.365 1029.53 802.779 1034.9 807.266C1037.68 809.627 1042.4 803.959 1042.4 803.959C1042.4 803.959 1043.34 804.668 1043.99 806.085Z" fill="#466AA5"/>
<path d="M1042.4 826.749H1035.67C1033.43 826.395 1031.78 825.745 1029.42 825.45C1025.93 824.978 1024.28 826.454 1023.99 826.749C1023.93 826.808 1023.93 826.808 1023.93 826.808H995.37C994.662 825.804 995.37 823.384 996.019 821.672C996.904 820.904 997.14 825.037 997.612 825.686C998.084 826.336 1020.92 825.923 1022.22 824.978C1023.52 824.033 1027.47 822.321 1033.02 823.679C1037.8 824.801 1044.88 821.908 1046.65 821.081C1047.3 823.03 1047.89 824.447 1047.89 824.447C1047.89 824.447 1048.18 826.041 1042.4 826.749Z" fill="#466AA5"/>
<path d="M1114.15 587.811C1113.5 584.445 1111.14 581.729 1107.95 580.549C1102.76 578.6 1094.32 576.888 1083.88 579.958C1066.29 585.154 1064.58 595.958 1065.7 603.752C1066.83 611.545 1063.4 623.944 1063.93 632.741C1064.47 641.538 1066.94 663.737 1079.98 662.556C1093.02 661.376 1134.98 650.099 1134.98 650.099C1134.98 650.099 1142.24 636.283 1127.31 616.268C1118.57 604.401 1115.33 593.597 1114.15 587.811Z" fill="#D37129"/>
<path d="M1106.12 577.597L1102.64 577.892C1102.64 577.892 1102.23 575.471 1100.64 573.995C1099.4 572.814 1097.69 572.401 1095.56 572.755C1093.56 573.05 1092.14 573.995 1091.37 575.471C1090.37 577.538 1090.9 580.253 1090.9 580.253L1087.48 581.021C1087.42 580.844 1086.48 576.475 1088.25 572.814C1089.48 570.276 1091.67 568.8 1094.68 568.268C1097.8 567.796 1100.46 568.504 1102.52 570.512C1105.47 573.287 1106.06 577.419 1106.12 577.597Z" fill="#D37129"/>
<path d="M1143.65 648.15C1143.65 648.15 1101.64 659.486 1088.6 660.608C1075.56 661.789 1073.02 639.648 1072.55 630.792C1072.02 621.995 1075.5 609.597 1074.32 601.803C1074.08 600.327 1073.97 598.674 1074.08 597.021C1074.44 590.054 1078.33 582.202 1092.49 578.01C1102.94 574.94 1111.38 576.711 1116.57 578.6C1119.75 579.781 1122.11 582.497 1122.76 585.803C1122.94 586.512 1123.06 587.338 1123.24 588.106C1124.71 594.305 1128.19 603.929 1135.98 614.32C1150.91 634.335 1143.65 648.15 1143.65 648.15Z" fill="#F1A34F"/>
<path opacity="0.4" d="M1078.92 632.623L1104.24 626.896C1104.24 626.896 1110.14 645.021 1098.16 648.328C1086.24 651.634 1081.28 644.608 1078.92 632.623Z" fill="#D86713"/>
<path d="M1078.92 632.623C1078.92 632.623 1084.76 638.232 1092.67 636.283C1100.58 634.276 1104.24 626.896 1104.24 626.896L1078.92 632.623Z" fill="#D37129"/>
<path opacity="0.4" d="M1109.37 625.715L1134.68 619.988C1134.68 619.988 1140.58 638.113 1128.61 641.42C1116.69 644.726 1111.73 637.7 1109.37 625.715Z" fill="#D86713"/>
<path d="M1109.37 625.715C1109.37 625.715 1115.21 631.324 1123.12 629.375C1131.02 627.368 1134.68 619.988 1134.68 619.988L1109.37 625.715Z" fill="#D37129"/>
<path opacity="0.4" d="M1122.82 585.862C1123 586.571 1123.12 587.397 1123.29 588.165C1119.93 595.073 1113.62 603.87 1102.88 605.936C1084.65 609.479 1074.14 597.021 1074.14 597.021C1074.5 590.054 1078.39 582.202 1092.55 578.01C1103 574.94 1111.43 576.711 1116.63 578.6C1119.75 579.781 1122.17 582.497 1122.82 585.862Z" fill="#D86713"/>
<path d="M1103.11 609.774C1101.99 610.01 1100.81 609.301 1100.58 608.18L1100.16 606.29C1099.93 605.169 1100.64 603.988 1101.76 603.752C1102.88 603.516 1104.06 604.224 1104.29 605.346L1104.71 607.235C1105 608.357 1104.29 609.479 1103.11 609.774Z" fill="#D86713"/>
<path d="M1089.72 545.301C1089.72 545.301 1092.61 552.15 1095.68 554.098C1098.69 555.988 1101.58 560.593 1102.23 564.312C1103.41 571.102 1098.16 575.353 1094.32 575.353C1090.49 575.353 1086.83 570.098 1084.59 557.641C1084.47 556.932 1080.81 549.788 1080.81 549.788L1089.72 545.301Z" fill="#D9935C"/>
<path d="M588.406 287.47C583.804 280.503 565.63 284.4 547.751 296.149C529.873 307.898 519.134 323.072 523.736 330.038C528.339 337.005 546.512 333.109 564.391 321.359C582.211 309.61 593.009 294.437 588.406 287.47Z" fill="#233862"/>
<path d="M495.118 546.128L498.659 546.364C498.6 546.305 500.016 484.784 505.444 459.869C515.475 413.463 541.733 377.212 542.028 376.858L535.714 374.85C535.419 375.205 530.404 382.88 523.382 397.168C516.891 410.275 506.447 432.179 501.786 457.626C497.242 482.718 495 545.774 495.118 546.128Z" fill="#BC3F3F"/>
<path d="M558.845 286.939C558.845 286.939 535.773 282.038 524.739 300.754C513.705 319.529 513.056 352.12 505.68 362.747C498.305 373.433 485.323 418.364 499.131 428.459C512.938 438.496 598.142 428.105 602.922 423.5C607.701 418.895 602.627 371.662 594.307 357.965C585.987 344.326 606.226 279.972 558.845 286.939Z" fill="#A53D38"/>
<path d="M593.186 492.224C619.267 485.611 647.943 445.109 647.943 445.109L640.627 438.733C633.015 447.707 601.447 463.116 601.447 463.116C601.624 454.91 601.388 447.412 600.857 440.622C597.375 394.334 579.91 378.924 575.13 375.5C574.363 374.968 573.95 374.732 573.95 374.732C573.95 374.732 573.95 375.087 573.891 375.677C573.832 377.035 573.714 379.81 573.537 383.647C572.534 411.987 571.354 497.773 593.186 492.224Z" fill="#FFB27D"/>
<path d="M640.568 438.733C640.686 437.611 641.394 421.729 644.58 418.718C647.766 415.707 653.962 411.574 655.791 411.928C657.561 412.282 663.698 422.378 660.807 429.345C657.915 436.312 647.943 445.109 647.943 445.109L640.568 438.733Z" fill="#FFB27D"/>
<path d="M536.363 761.391C537.956 767.708 539.727 773.73 541.497 779.339C541.851 780.52 542.264 781.701 542.618 782.882C542.795 783.472 542.972 784.004 543.208 784.594C543.562 785.716 543.975 786.778 544.329 787.841C544.801 789.199 545.273 790.557 545.745 791.856C546.099 792.801 546.453 793.804 546.807 794.69C552.118 808.86 556.543 817.893 556.543 817.893L567.105 817.184C567.105 817.184 563.152 798.35 562.385 771.369C562.385 770.424 562.326 769.42 562.326 768.476C562.267 766.409 562.267 764.225 562.267 762.099C562.267 761.214 562.267 760.328 562.267 759.383C562.503 736.18 565.335 708.726 574.54 682.512C581.975 661.199 587.403 641.243 591.298 623.235C603.925 565.08 600.975 526.881 600.975 526.881L541.733 533.847L538.96 534.143C538.724 561.36 538.015 598.379 537.425 627.25C537.307 632.269 537.248 637.051 537.13 641.479C536.717 660.018 536.422 672.712 536.422 672.712C524.857 697.273 528.988 731.929 536.363 761.391Z" fill="#FFB27D"/>
<path d="M508.099 520.209C519.311 495.058 524.68 487.973 524.857 480.061C525.034 473.803 521.907 467.072 515.947 450.541C514.531 446.644 513.587 442.629 512.938 438.555C508.217 406.673 526.627 372.194 538.074 369.832C541.261 369.005 546.689 357.492 546.571 338.895L547.987 339.19L572.121 343.972C572.121 343.972 571.59 351.588 571.531 358.732C571.531 364.695 571.826 370.777 573.183 371.485C574.894 371.662 593.835 375.028 597.316 380.459C600.68 385.832 596.903 386.304 598.26 405.729C600.031 431.707 581.68 462.526 597.965 514.482C614.605 567.56 501.904 534.084 508.099 520.209Z" fill="#FFB27D"/>
<path d="M572.18 343.972C572.18 343.972 571.649 351.588 571.59 358.732C558.077 358.378 550.938 346.038 548.046 339.19L572.18 343.972Z" fill="#EF9E67"/>
<path d="M576.723 350.762C576.723 350.762 544.801 351.293 544.742 331.396C544.742 311.5 540.612 298.156 560.969 296.976C581.385 295.795 585.338 303.411 586.931 310.024C588.583 316.636 584.984 350.053 576.723 350.762Z" fill="#FFB27D"/>
<path d="M575.543 296.444C575.543 296.444 566.81 319.824 553.357 323.249C539.963 326.673 534.121 323.131 534.121 323.131C534.121 323.131 544.388 314.924 546.571 300.636C546.512 300.636 568.935 285.344 575.543 296.444Z" fill="#A53D38"/>
<path d="M573.36 298.333C573.36 298.333 579.91 303.529 581.503 308.607C583.096 313.684 583.804 324.134 586.872 323.78C586.872 323.78 593.481 307.898 586.046 298.924C578.139 289.418 573.36 298.333 573.36 298.333Z" fill="#A53D38"/>
<path d="M466.559 546.895L476.177 549.788C476.177 549.788 507.804 497.301 510.696 483.604C511.64 479.176 513.941 470.26 516.596 460.282C522.143 439.618 529.342 414.349 529.342 414.349L531.702 404.135L539.727 369.242C539.727 369.242 524.326 370.836 515.298 374.614C512.289 375.854 510.047 377.33 509.221 379.101C502.612 393.684 496.003 430.467 491.342 456.681C488.746 471.323 486.798 482.659 485.736 485.08C482.845 491.751 474.053 528.652 466.559 546.895Z" fill="#FFB27D"/>
<path d="M574.54 299.101C574.54 299.101 568.285 323.544 551.351 331.396C551.351 331.396 568.285 316.341 569.702 300.223C571.236 284.105 574.54 299.101 574.54 299.101Z" fill="#A53D38"/>
<path d="M502.376 756.254C505.798 792.623 520.786 816.181 520.786 816.181L525.919 820.845C525.919 820.845 530.581 794.218 533.944 763.693C537.13 734.704 541.556 704.003 546.512 694.675C553.947 680.682 559.435 652.047 563.388 621.818C569.938 571.811 572.239 517.316 572.239 517.316L512.171 514.364C506.152 524.519 503.497 541.227 502.848 560.18C502.199 580.135 503.733 602.571 505.916 622.645C508.985 650.748 513.174 674.188 514.177 679.442C514.295 680.151 514.118 680.8 513.764 681.449C501.845 705.125 500.134 732.225 502.376 756.254Z" fill="#FFB27D"/>
<path d="M616.316 469.021C615.372 481.242 610.77 497.714 593.186 500.253C586.931 501.139 582.506 495.53 579.32 486.201C575.189 473.98 573.242 455.382 572.534 436.666C571.826 418.954 572.121 401.124 572.534 388.548C579.733 387.721 593.009 381.581 597.08 380.105C597.198 380.223 597.316 380.341 597.434 380.459C597.493 380.577 597.611 380.636 597.67 380.754C597.788 380.932 597.906 381.168 598.024 381.345C599.795 384.71 600.031 403.426 600.916 421.079C601.683 436.548 602.922 451.249 605.99 454.083C607.406 455.382 616.08 455.441 616.08 455.441C616.08 455.441 616.906 461.404 616.316 469.021Z" fill="#FFB93E"/>
<path d="M572.534 436.666C573.891 469.67 578.848 502.379 593.186 500.312C610.829 497.714 615.372 481.301 616.316 469.08C612.009 468.843 604.397 467.781 601.329 463.176C597.021 456.563 583.509 413.995 583.509 413.995C583.509 413.995 578.198 423.559 572.534 436.666Z" fill="#FFA412"/>
<path d="M591.18 481.537C591.18 481.537 555.835 490.393 524.798 480.061C524.798 480.061 507.745 516.253 503.084 531.722C498.423 547.25 463.019 745.627 463.019 745.627C463.019 745.627 540.907 768.181 592.655 748.697C592.655 748.697 607.878 536.622 601.152 514.364C594.366 492.165 591.18 481.537 591.18 481.537Z" fill="#2B478B"/>
<path d="M600.916 420.961C598.32 446.526 591.239 481.183 591.239 481.183C587.344 483.249 583.332 484.784 579.379 485.847C551.941 493.286 524.916 479.707 524.916 479.707C524.916 479.707 524.857 478.939 524.798 477.936C524.739 477.168 524.68 476.283 524.562 475.574C524.385 474.098 517.835 458.629 517.835 458.629C517.835 458.629 517.599 459.81 517.186 461.877C514.826 473.212 506.624 510.526 501.609 513.892C498.718 515.84 489.395 515.84 480.662 513.478C471.575 510.999 463.137 505.921 463.137 497.655C463.137 487.087 482.373 439.205 496.239 406.378C496.239 406.319 496.239 406.319 496.239 406.319C503.615 388.843 507.922 376.681 513.528 375.323C513.528 375.323 551.528 390.791 572.534 388.43C579.733 387.603 593.009 381.522 597.08 379.987C597.198 380.105 597.316 380.223 597.434 380.341C597.493 380.459 597.611 380.518 597.67 380.636C597.729 380.754 597.847 380.873 597.906 380.991C600.975 385.537 600.503 393.094 600.68 395.928C600.916 401.655 602.037 409.507 600.916 420.961Z" fill="#FFB93E"/>
<path d="M517.776 458.925C517.776 458.925 524.267 474.511 524.503 475.928C524.621 476.578 524.68 477.463 524.739 478.29C527.866 480.888 531.702 482.836 535.596 484.017C546.63 487.382 551.41 466.187 550.761 455.677C550.112 445.109 534.475 414.998 529.283 414.349C524.09 413.699 517.776 458.925 517.776 458.925Z" fill="#FFA412"/>
<path d="M517.127 462.231C517.54 460.164 517.776 458.984 517.776 458.984C517.422 460.046 517.245 461.168 517.127 462.231Z" fill="#E58638"/>
<path d="M562.68 488.268C582.801 488.268 590.826 482.6 591.416 482.128L592.714 472.622C592.537 472.74 565.512 488.976 523.677 473.449L524.562 480.652C540.671 486.615 552.177 488.268 562.68 488.268Z" fill="#163560"/>
<path d="M463.078 498.069C463.078 506.393 471.516 511.471 480.603 513.951C468.094 499.013 495.472 408.858 496.18 406.555C482.314 439.441 463.078 487.5 463.078 498.069Z" fill="#FFA412"/>
<path d="M550.466 826.749H557.192C559.435 826.395 561.087 825.745 563.447 825.45C566.928 824.978 568.581 826.454 568.876 826.749C568.935 826.808 568.935 826.808 568.935 826.808H597.494C598.202 825.805 597.494 823.384 596.844 821.672C596.372 820.491 595.369 819.605 594.189 819.251C591.18 818.365 585.161 817.598 579.733 812.638C576.664 809.863 564.863 802.424 564.863 802.424H564.804C564.568 802.424 563.329 802.838 557.96 807.325C555.186 809.686 550.466 804.018 550.466 804.018C550.466 804.018 549.581 804.727 548.932 806.144C548.401 807.207 547.988 808.683 548.342 810.513C548.755 813.111 547.398 817.893 546.276 821.14C545.627 823.089 545.037 824.506 545.037 824.506C545.037 824.506 544.683 826.041 550.466 826.749Z" fill="#233862"/>
<path d="M548.873 806.085C550.466 807.207 553.888 809.45 556.13 809.745C559.14 810.159 564.863 802.365 564.863 802.365H564.804C564.568 802.365 563.329 802.779 557.959 807.266C555.186 809.627 550.466 803.959 550.466 803.959C550.466 803.959 549.522 804.668 548.873 806.085Z" fill="#466AA5"/>
<path d="M550.466 826.749H557.192C559.435 826.395 561.087 825.745 563.447 825.45C566.928 824.978 568.581 826.454 568.876 826.749C568.935 826.808 568.935 826.808 568.935 826.808H597.493C598.201 825.804 597.493 823.384 596.844 821.672C595.959 820.904 595.723 825.037 595.251 825.686C594.779 826.336 571.944 825.923 570.646 824.978C569.348 824.033 565.394 822.321 559.848 823.679C555.068 824.801 547.987 821.908 546.217 821.081C545.568 823.03 544.978 824.447 544.978 824.447C544.978 824.447 544.683 826.041 550.466 826.749Z" fill="#466AA5"/>
<path d="M514.59 826.749H521.317C523.559 826.395 525.211 825.745 527.572 825.45C531.053 824.978 532.705 826.454 533 826.749C533.059 826.808 533.059 826.808 533.059 826.808H561.618C562.326 825.805 561.618 823.384 560.969 821.672C560.497 820.491 559.494 819.605 558.314 819.251C555.304 818.365 549.286 817.598 543.857 812.638C540.789 809.863 528.988 802.424 528.988 802.424H528.929C528.693 802.424 527.454 802.838 522.084 807.325C519.311 809.686 514.59 804.018 514.59 804.018C514.59 804.018 513.705 804.727 513.056 806.144C512.525 807.207 512.112 808.683 512.466 810.513C512.879 813.111 511.522 817.893 510.401 821.14C509.752 823.089 509.162 824.506 509.162 824.506C509.162 824.506 508.808 826.041 514.59 826.749Z" fill="#233862"/>
<path d="M512.997 806.085C514.59 807.207 518.013 809.45 520.255 809.745C523.264 810.159 528.988 802.365 528.988 802.365H528.929C528.693 802.365 527.453 802.779 522.084 807.266C519.311 809.627 514.59 803.959 514.59 803.959C514.59 803.959 513.646 804.668 512.997 806.085Z" fill="#466AA5"/>
<path d="M514.59 826.749H521.317C523.559 826.395 525.211 825.745 527.571 825.45C531.053 824.978 532.705 826.454 533 826.749C533.059 826.808 533.059 826.808 533.059 826.808H561.618C562.326 825.804 561.618 823.384 560.969 821.672C560.084 820.904 559.848 825.037 559.376 825.686C558.904 826.336 536.068 825.923 534.77 824.978C533.472 824.033 529.519 822.321 523.972 823.679C519.193 824.801 512.112 821.908 510.342 821.081C509.693 823.03 509.103 824.447 509.103 824.447C509.103 824.447 508.808 826.041 514.59 826.749Z" fill="#466AA5"/>
<path d="M467.267 545.301C467.267 545.301 464.376 552.15 461.308 554.098C458.299 555.988 455.407 560.593 454.758 564.312C453.578 571.102 458.83 575.353 462.665 575.353C466.5 575.353 470.159 570.098 472.401 557.641C472.519 556.932 476.177 549.788 476.177 549.788L467.267 545.301Z" fill="#FFB27D"/>
<path d="M655.083 403.249L654.611 407.854L653.195 422.378L652.31 431.707H633.782L632.602 422.378L630.832 407.854L630.301 403.249H655.083Z" fill="#EE9849"/>
<path d="M656.381 403.249H628.825L629.357 400.474H655.673L656.381 403.249Z" fill="#D17A33"/>
<path d="M654.611 407.854L653.195 422.378H632.602L630.832 407.854H654.611Z" fill="#D17A33"/>
<path d="M657.03 413.109C657.03 413.109 652.369 407.854 647.648 411.869C642.987 415.884 647.943 424.386 652.015 426.747C656.086 429.109 657.384 430.29 657.384 430.29L657.03 413.109Z" fill="#FFB27D"/>
<path d="M550.82 546.423L547.279 546.187C547.338 546.128 554.183 484.548 552.177 458.984C548.401 411.338 527.276 371.603 527.04 371.249L533.59 370.068C533.826 370.422 537.779 378.806 542.854 393.98C547.515 407.972 554.95 431.175 556.13 457.212C557.192 482.895 550.997 546.128 550.82 546.423Z" fill="#BC3F3F"/>
<path d="M508.159 532.844C508.159 532.844 511.581 524.401 517.009 522.334L544.801 527.589C544.801 527.589 537.956 534.143 537.307 538.394L508.159 532.844Z" fill="#D2E4FF"/>
<path d="M543.031 580.431L495.531 571.456C493.289 571.043 491.814 568.859 492.227 566.674L498.187 535.205C498.6 532.962 500.783 531.486 502.966 531.899L550.466 540.873C552.708 541.287 554.183 543.471 553.77 545.656L547.81 577.124C547.397 579.368 545.273 580.844 543.031 580.431Z" fill="#912F2F"/>
<path d="M525.948 515.606L503.231 515.406L502.976 544.514L525.694 544.713L525.948 515.606Z" fill="#E58638"/>
<path d="M524.65 515.605L501.933 515.407L501.679 544.514L524.396 544.712L524.65 515.605Z" fill="#EE9849"/>
<path d="M538.479 532.96L520.439 519.144L502.758 542.258L520.798 556.073L538.479 532.96Z" fill="#578E9B"/>
<path d="M536.449 531.43L518.409 517.614L500.728 540.728L518.768 554.544L536.449 531.43Z" fill="#74ACBE"/>
<path d="M531.407 578.246L485.972 569.685C483.199 569.154 481.37 566.497 481.901 563.663L487.447 534.202C487.978 531.427 490.634 529.597 493.466 530.128L538.901 538.689C541.674 539.22 543.503 541.877 542.972 544.711L537.425 574.172C536.894 576.947 534.18 578.778 531.407 578.246Z" fill="#BC3F3F"/>
<path d="M520.668 312.798C520.668 312.798 506.152 283.868 526.45 272.414C546.748 260.961 561.618 265.448 572.77 279.44L520.668 312.798Z" fill="#233862"/>
<path d="M602.509 276.311C598.319 269.581 583.686 270.702 566.043 277.905C559.14 280.739 551.823 284.518 544.447 289.123C535.301 294.85 527.276 301.108 521.022 307.249C509.339 318.703 503.615 329.625 507.391 335.706C508.572 337.537 510.283 338.776 512.879 339.426C515.475 333.876 522.91 328.621 524.975 324.311C527.925 318.171 535.478 307.012 549.227 298.452C559.789 291.839 570.292 288.001 577.549 287.529C581.739 287.234 584.866 288.119 586.223 290.304C587.285 292.016 587.167 294.319 586.046 296.976C587.049 298.688 588.229 301.167 589.233 304.415C600.68 293.079 606.226 282.333 602.509 276.311Z" fill="#2B478B"/>
<path d="M1080.81 74.4506C1034.08 74.4506 996.019 112.532 996.019 159.292C996.019 206.053 1034.08 244.134 1080.81 244.134C1127.54 244.134 1165.6 206.053 1165.6 159.292C1165.6 112.532 1127.6 74.4506 1080.81 74.4506ZM1080.81 238.643C1037.09 238.643 1001.57 203.042 1001.57 159.351C1001.57 115.602 1037.15 80.0594 1080.81 80.0594C1124.53 80.0594 1160.06 115.661 1160.06 159.351C1160.11 203.042 1124.53 238.643 1080.81 238.643Z" fill="#F9DDBF"/>
<path d="M1080.81 94.9968C1082.7 94.9968 1084.17 93.4617 1084.17 91.6314C1084.17 89.7421 1082.64 88.2661 1080.81 88.2661C1078.92 88.2661 1077.45 89.8012 1077.45 91.6314C1077.45 93.4617 1078.98 94.9968 1080.81 94.9968Z" fill="#F9DDBF"/>
<path d="M1080.81 224.71C1078.92 224.71 1077.45 226.245 1077.45 228.075C1077.45 229.964 1078.98 231.44 1080.81 231.44C1082.7 231.44 1084.17 229.905 1084.17 228.075C1084.23 226.245 1082.7 224.71 1080.81 224.71Z" fill="#F9DDBF"/>
<path d="M1145.66 156.458C1143.77 156.458 1142.29 157.993 1142.29 159.824C1142.29 161.713 1143.83 163.189 1145.66 163.189C1147.55 163.189 1149.02 161.654 1149.02 159.824C1149.02 157.993 1147.55 156.458 1145.66 156.458Z" fill="#F9DDBF"/>
<path d="M1112.38 213.551C1111.08 214.909 1111.14 217.034 1112.5 218.333C1113.85 219.632 1115.98 219.573 1117.28 218.215C1118.57 216.857 1118.52 214.732 1117.16 213.433C1115.8 212.193 1113.68 212.252 1112.38 213.551Z" fill="#F9DDBF"/>
<path d="M1134.51 192.532C1133.21 193.89 1133.27 196.016 1134.62 197.315C1135.98 198.613 1138.11 198.554 1139.4 197.197C1140.7 195.839 1140.64 193.713 1139.29 192.414C1137.93 191.115 1135.8 191.174 1134.51 192.532Z" fill="#F9DDBF"/>
<path d="M1138.4 130.657C1140.05 129.831 1140.76 127.823 1139.99 126.17C1139.17 124.517 1137.16 123.809 1135.51 124.576C1133.8 125.403 1133.15 127.41 1133.92 129.063C1134.68 130.717 1136.75 131.425 1138.4 130.657Z" fill="#F9DDBF"/>
<path d="M1116.63 101.786C1115.03 100.783 1112.97 101.196 1111.97 102.79C1110.96 104.384 1111.38 106.451 1112.97 107.454C1114.56 108.458 1116.63 108.045 1117.63 106.451C1118.69 104.857 1118.22 102.79 1116.63 101.786Z" fill="#F9DDBF"/>
<path d="M1020.92 155.337C1019.03 155.337 1017.56 156.872 1017.56 158.702C1017.56 160.591 1019.09 162.067 1020.92 162.067C1022.81 162.067 1024.28 160.532 1024.28 158.702C1024.28 156.872 1022.75 155.337 1020.92 155.337Z" fill="#F9DDBF"/>
<path d="M1049.42 212.311C1048.06 213.61 1048 215.735 1049.3 217.093C1050.6 218.451 1052.72 218.51 1054.08 217.211C1055.44 215.912 1055.5 213.787 1054.2 212.429C1052.9 211.071 1050.78 211.012 1049.42 212.311Z" fill="#F9DDBF"/>
<path d="M1027.29 191.292C1025.94 192.591 1025.88 194.717 1027.17 196.075C1028.47 197.433 1030.6 197.492 1031.95 196.193C1033.31 194.894 1033.37 192.768 1032.07 191.41C1030.77 190.053 1028.65 189.993 1027.29 191.292Z" fill="#F9DDBF"/>
<path d="M1028.18 129.477C1029.89 130.303 1031.89 129.595 1032.66 127.882C1033.49 126.17 1032.78 124.163 1031.07 123.395C1029.42 122.569 1027.35 123.277 1026.58 124.989C1025.76 126.643 1026.47 128.709 1028.18 129.477Z" fill="#F9DDBF"/>
<path d="M1049.89 100.665C1048.3 101.668 1047.89 103.794 1048.89 105.329C1049.89 106.923 1052.02 107.336 1053.55 106.333C1055.14 105.329 1055.56 103.203 1054.55 101.668C1053.55 100.074 1051.48 99.602 1049.89 100.665Z" fill="#F9DDBF"/>
<path d="M1112.67 134.495L1085.06 153.624C1084.94 153.565 1084.88 153.506 1084.76 153.447L1081.81 101.255V153.506C1080.69 154.038 1079.93 155.218 1079.93 156.517C1079.93 158.407 1081.46 159.883 1083.29 159.883C1085.18 159.883 1086.65 158.348 1086.65 156.517C1086.65 156.34 1086.65 156.163 1086.59 156.045L1112.67 134.495Z" fill="#F9DDBF"/>
</svg>
